<svg width="198" height="48" viewBox="0 0 198 48" fill="none" xmlns="http://www.w3.org/2000/svg">
<g clip-path="url(#clip0_135_35238)">
<path d="M20.25 14.2149C20.25 13.9949 20.44 13.7349 20.81 13.4549C21.59 12.8549 22.96 12.3949 24.93 12.0649C25.95 11.8949 27.08 11.8149 28.31 11.8149C31.23 11.8149 33.45 12.3849 34.95 13.5149C36.27 14.5049 36.92 15.8149 36.92 17.4349C36.92 18.0149 36.82 18.5949 36.61 19.1549C36.61 19.1549 36.61 19.1649 36.61 19.1749C36.35 19.8749 35.57 20.2549 34.84 20.0949C34.64 20.0549 34.44 20.0249 34.24 20.0249C34.02 20.0249 33.85 20.0649 33.73 20.1549C33.61 20.2449 33.55 20.4049 33.55 20.6349C34.98 20.6949 36.1 21.2149 36.9 22.1849C37.61 23.0749 37.97 24.1749 37.97 25.4849C37.97 27.5249 37.12 29.0049 35.41 29.9349C33.81 30.8049 31.4 31.2349 28.19 31.2349C25.94 31.2349 24.29 31.1649 23.23 31.0249C22.17 30.8849 21.42 30.5449 20.95 30.0249C20.48 29.5049 20.25 28.6949 20.25 27.6249V14.2149ZM28.19 19.8449C28.19 19.8449 28.34 19.8849 28.53 19.8849C28.72 19.8849 28.86 19.8149 28.95 19.6649C29.04 19.5149 29.1 19.2749 29.1 18.9449V18.8549C29.1 18.5049 29.06 18.2549 28.98 18.1049C28.9 17.9549 28.76 17.8749 28.57 17.8749C28.38 17.8749 28.25 17.8949 28.18 17.9349C28.18 17.9849 28.19 18.0649 28.19 18.1849V19.8349V19.8449ZM28.19 25.3549C28.19 25.3549 28.34 25.3949 28.53 25.3949C28.72 25.3949 28.86 25.3349 28.95 25.2049C29.04 25.0749 29.1 24.8549 29.1 24.5349V24.2549C29.1 23.8949 29.06 23.6349 28.98 23.4749C28.9 23.3149 28.76 23.2449 28.57 23.2449C28.38 23.2449 28.25 23.2649 28.18 23.3049C28.18 23.3549 28.19 23.4349 28.19 23.5549V25.3549Z" fill="#5760BC"/>
<path d="M28.19 31.4849C25.94 31.4849 24.26 31.4149 23.2 31.2749C22.09 31.1249 21.27 30.7649 20.76 30.1949C20.25 29.6249 20 28.7649 20 27.6349V14.2149C20 13.9049 20.21 13.5949 20.65 13.2549C21.47 12.6249 22.86 12.1549 24.89 11.8149C25.92 11.6449 27.07 11.5649 28.31 11.5649C31.28 11.5649 33.56 12.1549 35.1 13.3149C36.48 14.3549 37.17 15.7449 37.17 17.4349C37.17 18.0449 37.06 18.6549 36.85 19.2349C36.55 20.0549 35.66 20.5249 34.79 20.3249C34.43 20.2449 34.03 20.2349 33.89 20.3449C33.88 20.3549 33.86 20.3749 33.85 20.3949C35.22 20.5049 36.31 21.0549 37.1 22.0149C37.85 22.9449 38.22 24.1149 38.22 25.4749C38.22 27.6049 37.32 29.1749 35.53 30.1449C33.9 31.0249 31.43 31.4749 28.19 31.4749V31.4849ZM28.31 12.0649C27.1 12.0649 25.98 12.1449 24.97 12.3149C23.05 12.6349 21.7 13.0849 20.96 13.6549C20.55 13.9649 20.5 14.1549 20.5 14.2149V27.6249C20.5 28.6249 20.71 29.3749 21.14 29.8549C21.56 30.3349 22.28 30.6449 23.27 30.7749C24.31 30.9149 25.96 30.9849 28.19 30.9849C31.35 30.9849 33.74 30.5549 35.3 29.7149C36.93 28.8249 37.73 27.4449 37.73 25.4849C37.73 24.2349 37.39 23.1749 36.72 22.3349C35.96 21.4149 34.93 20.9349 33.56 20.8749H33.32V20.6249C33.32 20.3049 33.41 20.0749 33.59 19.9449C33.88 19.7349 34.39 19.7249 34.9 19.8349C35.53 19.9749 36.17 19.6449 36.38 19.0749C36.58 18.5349 36.68 17.9849 36.68 17.4249C36.68 15.8749 36.07 14.6549 34.8 13.7049C33.35 12.6149 31.17 12.0549 28.31 12.0549V12.0649ZM28.53 25.6549C28.27 25.6549 28.13 25.6249 28.04 25.5649L27.94 25.4849V23.5649C27.94 23.4749 27.94 23.4049 27.94 23.3649L27.9 23.1849L28.06 23.0949C28.17 23.0349 28.33 23.0049 28.57 23.0049C28.85 23.0049 29.07 23.1349 29.2 23.3749C29.3 23.5649 29.35 23.8649 29.35 24.2649V24.5449C29.35 24.9249 29.29 25.1949 29.15 25.3649C29.05 25.4949 28.86 25.6549 28.53 25.6549ZM28.44 25.1549C28.44 25.1549 28.49 25.1549 28.53 25.1549C28.67 25.1549 28.72 25.1049 28.76 25.0649C28.79 25.0249 28.85 24.9049 28.85 24.5449V24.2649C28.85 23.8449 28.79 23.6749 28.76 23.6049C28.73 23.5449 28.68 23.5049 28.57 23.5049C28.52 23.5049 28.48 23.5049 28.45 23.5049C28.45 23.5249 28.45 23.5349 28.45 23.5549V25.1449L28.44 25.1549ZM28.53 20.1449C28.27 20.1449 28.13 20.1149 28.04 20.0549L27.94 19.9749V18.1949C27.94 18.1049 27.94 18.0349 27.94 17.9949L27.9 17.8149L28.06 17.7249C28.17 17.6649 28.33 17.6349 28.57 17.6349C28.93 17.6349 29.11 17.8249 29.2 17.9949C29.3 18.1849 29.35 18.4749 29.35 18.8649V18.9549C29.35 19.3449 29.29 19.6249 29.16 19.8049C29.02 20.0249 28.8 20.1349 28.53 20.1349V20.1449ZM28.44 19.6449C28.54 19.6449 28.67 19.6449 28.74 19.5349C28.78 19.4749 28.84 19.3249 28.84 18.9549V18.8649C28.84 18.4649 28.78 18.2949 28.75 18.2349C28.72 18.1749 28.67 18.1349 28.56 18.1349C28.51 18.1349 28.47 18.1349 28.44 18.1349C28.44 18.1549 28.44 18.1649 28.44 18.1849V19.6249V19.6449Z" fill="#CDD1F2"/>
<path d="M40.8404 29.405C39.2404 27.865 38.4404 25.775 38.4404 23.135C38.4404 20.495 39.1904 18.415 40.7004 16.895C42.2104 15.375 44.1804 14.605 46.6304 14.605C49.0804 14.605 51.0604 15.395 52.5704 16.985C54.0704 18.575 54.8204 20.645 54.8204 23.195C54.8204 25.745 54.1004 27.765 52.6504 29.275C51.2004 30.785 49.2404 31.525 46.7504 31.525C44.2604 31.525 42.2904 30.815 40.8404 29.405ZM46.3104 22.925V25.485C46.3804 25.555 46.4904 25.585 46.6504 25.585C46.8104 25.585 46.9204 25.535 46.9904 25.425C47.0604 25.315 47.0904 25.135 47.0904 24.865V22.775C47.0904 21.835 47.0504 21.215 46.9704 20.915C46.8904 20.615 46.7504 20.455 46.5304 20.455C46.3904 20.455 46.2804 20.505 46.1804 20.605C46.2704 21.575 46.3104 22.345 46.3104 22.935V22.925Z" fill="#5760BC"/>
<path d="M46.7502 31.775C44.2102 31.775 42.1602 31.035 40.6702 29.585C39.0302 28.005 38.2002 25.835 38.2002 23.135C38.2002 20.435 38.9802 18.285 40.5302 16.715C42.0802 15.145 44.1302 14.355 46.6402 14.355C49.1502 14.355 51.2002 15.185 52.7602 16.815C54.3002 18.445 55.0802 20.595 55.0802 23.195C55.0802 25.795 54.3302 27.905 52.8402 29.445C51.3502 30.995 49.3002 31.775 46.7602 31.775H46.7502ZM46.6302 14.855C44.2602 14.855 42.3302 15.605 40.8802 17.065C39.4302 18.535 38.6902 20.575 38.6902 23.135C38.6902 25.695 39.4702 27.735 41.0102 29.225C42.4102 30.585 44.3402 31.275 46.7402 31.275C49.1402 31.275 51.0702 30.545 52.4602 29.095C53.8602 27.645 54.5602 25.665 54.5602 23.195C54.5602 20.725 53.8302 18.695 52.3802 17.155C50.9202 15.625 48.9902 14.845 46.6202 14.845L46.6302 14.855ZM46.6402 25.835C46.4202 25.835 46.2402 25.775 46.1302 25.655L46.0602 25.585V22.925C46.0602 22.355 46.0202 21.575 45.9302 20.625V20.505L46.0002 20.425C46.1402 20.285 46.3302 20.205 46.5302 20.205C46.7302 20.205 47.0702 20.285 47.2102 20.855C47.2902 21.185 47.3302 21.815 47.3302 22.785V24.875C47.3302 25.195 47.2902 25.415 47.1902 25.565C47.1102 25.695 46.9502 25.845 46.6402 25.845V25.835ZM46.5502 25.325C46.5502 25.325 46.6002 25.325 46.6402 25.325C46.7402 25.325 46.7602 25.295 46.7702 25.275C46.7902 25.255 46.8302 25.155 46.8302 24.855V22.765C46.8302 21.855 46.7902 21.245 46.7202 20.965C46.6502 20.695 46.5602 20.695 46.5202 20.695C46.4902 20.695 46.4602 20.695 46.4302 20.715C46.5102 21.625 46.5502 22.365 46.5502 22.925V25.335V25.325Z" fill="#CDD1F2"/>
<path d="M57.8004 29.405C56.2004 27.865 55.4004 25.775 55.4004 23.135C55.4004 20.495 56.1504 18.415 57.6604 16.895C59.1704 15.375 61.1404 14.605 63.5904 14.605C66.0404 14.605 68.0204 15.395 69.5304 16.985C71.0304 18.575 71.7804 20.645 71.7804 23.195C71.7804 25.745 71.0604 27.765 69.6104 29.275C68.1604 30.785 66.2004 31.525 63.7104 31.525C61.2204 31.525 59.2504 30.815 57.8004 29.405ZM63.2704 22.925V25.485C63.3404 25.555 63.4504 25.585 63.6104 25.585C63.7704 25.585 63.8804 25.535 63.9504 25.425C64.0204 25.315 64.0504 25.135 64.0504 24.865V22.775C64.0504 21.835 64.0104 21.215 63.9304 20.915C63.8504 20.615 63.7104 20.455 63.4904 20.455C63.3504 20.455 63.2404 20.505 63.1404 20.605C63.2304 21.575 63.2704 22.345 63.2704 22.935V22.925Z" fill="#5760BC"/>
<path d="M63.7102 31.775C61.1702 31.775 59.1202 31.035 57.6302 29.585C55.9902 28.005 55.1602 25.835 55.1602 23.135C55.1602 20.435 55.9402 18.285 57.4902 16.715C59.0402 15.145 61.0902 14.355 63.6002 14.355C66.1102 14.355 68.1602 15.185 69.7202 16.815C71.2602 18.445 72.0402 20.595 72.0402 23.195C72.0402 25.795 71.2902 27.905 69.8002 29.445C68.3102 30.995 66.2602 31.775 63.7202 31.775H63.7102ZM63.5902 14.855C61.2202 14.855 59.2902 15.605 57.8402 17.065C56.3902 18.525 55.6502 20.575 55.6502 23.135C55.6502 25.695 56.4302 27.735 57.9702 29.225C59.3702 30.585 61.3002 31.275 63.7002 31.275C66.1002 31.275 68.0302 30.545 69.4202 29.095C70.8202 27.645 71.5202 25.665 71.5202 23.195C71.5202 20.725 70.7902 18.695 69.3402 17.155C67.8902 15.625 65.9502 14.845 63.5802 14.845L63.5902 14.855ZM63.6002 25.835C63.3802 25.835 63.2002 25.775 63.0902 25.655L63.0202 25.585V22.925C63.0202 22.355 62.9802 21.575 62.8902 20.625V20.505L62.9602 20.425C63.1002 20.285 63.2902 20.205 63.4902 20.205C63.6902 20.205 64.0302 20.285 64.1702 20.855C64.2502 21.185 64.2902 21.815 64.2902 22.785V24.875C64.2902 25.195 64.2502 25.415 64.1502 25.565C64.0702 25.695 63.9102 25.845 63.6002 25.845V25.835ZM63.5102 25.325C63.5102 25.325 63.5602 25.325 63.6002 25.325C63.7002 25.325 63.7202 25.295 63.7302 25.275C63.7402 25.255 63.7902 25.155 63.7902 24.855V22.765C63.7902 21.635 63.7302 21.155 63.6802 20.965C63.6102 20.695 63.5202 20.695 63.4802 20.695C63.4502 20.695 63.4202 20.695 63.3902 20.715C63.4702 21.615 63.5102 22.365 63.5102 22.925V25.335V25.325Z" fill="#CDD1F2"/>
<path d="M129.451 23.8349C129.451 24.5349 129.531 25.1049 129.681 25.5349C129.831 25.9649 130.111 26.3049 130.501 26.5449C130.501 26.5949 130.511 26.6849 130.511 26.8249V27.0849C130.511 28.4649 130.091 29.5449 129.251 30.3149C128.511 30.9949 127.591 31.3349 126.501 31.3349C125.761 31.3349 125.081 31.1549 124.471 30.8049C123.861 30.4549 123.421 29.9449 123.151 29.2849C122.821 29.2849 122.651 29.4449 122.651 29.7649C122.651 30.0349 122.821 30.3449 123.161 30.6849C122.531 31.1149 121.571 31.3249 120.291 31.3249C118.491 31.3249 117.051 30.8349 115.971 29.8549C114.891 28.8749 114.351 27.5049 114.351 25.7449C114.351 23.9849 114.921 22.6249 116.061 21.6549C117.101 20.7849 118.451 20.3549 120.111 20.3549C120.681 20.3549 121.221 20.3949 121.751 20.4749C122.101 20.5449 122.291 20.5849 122.321 20.5949C122.351 20.4949 122.361 20.4149 122.361 20.3449C122.361 20.0949 122.151 19.9249 121.721 19.8349C121.291 19.7449 120.731 19.7049 120.041 19.7049C118.571 19.7049 117.311 20.0049 116.271 20.5949C115.791 19.7849 115.551 18.7649 115.551 17.5249C115.551 16.8249 115.641 16.3049 115.811 15.9649C116.511 15.6449 117.401 15.3549 118.491 15.1049C119.581 14.8549 120.711 14.7349 121.911 14.7349C124.391 14.7349 126.261 15.2749 127.531 16.3549C128.801 17.4349 129.431 18.9749 129.431 20.9649V23.8349H129.451ZM121.861 24.5549C121.451 24.5549 121.251 24.7449 121.251 25.1149C121.251 25.4649 121.491 25.6449 121.971 25.6449C122.301 25.6449 122.551 25.5649 122.701 25.4049C122.851 25.2449 122.931 24.9649 122.931 24.5649H121.861V24.5549Z" fill="#5760BC"/>
<path d="M126.51 31.5849C125.73 31.5849 125 31.3949 124.35 31.0249C123.75 30.6749 123.29 30.1849 123 29.5549C122.92 29.5849 122.91 29.6549 122.91 29.7649C122.91 29.9649 123.06 30.2249 123.35 30.5049L123.56 30.7149L123.31 30.8849C122.64 31.3449 121.63 31.5749 120.3 31.5749C118.44 31.5749 116.93 31.0549 115.81 30.0449C114.68 29.0249 114.11 27.5749 114.11 25.7549C114.11 23.9349 114.72 22.4849 115.91 21.4749C117 20.5749 118.41 20.1149 120.12 20.1149C120.7 20.1149 121.26 20.1549 121.79 20.2349C121.91 20.2549 122.02 20.2749 122.11 20.2949C122.06 20.1849 121.85 20.1149 121.68 20.0849C121.27 20.0049 120.72 19.9549 120.05 19.9549C118.63 19.9549 117.4 20.2449 116.4 20.8149L116.19 20.9349L116.06 20.7249C115.56 19.8849 115.31 18.8049 115.31 17.5249C115.31 16.7749 115.41 16.2249 115.6 15.8449L115.64 15.7649L115.72 15.7249C116.43 15.3949 117.35 15.1049 118.44 14.8549C119.54 14.6049 120.71 14.4749 121.92 14.4749C124.45 14.4749 126.39 15.0449 127.7 16.1549C129.02 17.2849 129.69 18.8949 129.69 20.9549V23.8249C129.69 24.4949 129.76 25.0349 129.91 25.4349C130.05 25.8149 130.28 26.1049 130.63 26.3149L130.72 26.3749L130.74 26.4849C130.75 26.5449 130.76 26.6549 130.76 26.8149V27.0749C130.76 28.5249 130.31 29.6749 129.42 30.4949C128.64 31.2149 127.65 31.5849 126.5 31.5849H126.51ZM123.16 29.0349H123.33L123.39 29.1949C123.63 29.8049 124.03 30.2649 124.6 30.5949C125.17 30.9249 125.81 31.0849 126.51 31.0849C127.53 31.0849 128.4 30.7649 129.09 30.1249C129.87 29.4049 130.27 28.3849 130.27 27.0749V26.8149C130.27 26.7649 130.27 26.7149 130.27 26.6849C129.89 26.4149 129.61 26.0649 129.45 25.6149C129.28 25.1649 129.2 24.5649 129.2 23.8349V20.9649C129.2 19.0649 128.59 17.5749 127.39 16.5449C126.18 15.5049 124.34 14.9849 121.94 14.9849C120.77 14.9849 119.63 15.1049 118.57 15.3549C117.55 15.5849 116.7 15.8549 116.02 16.1549C115.89 16.4649 115.82 16.9249 115.82 17.5249C115.82 18.6049 116.01 19.5249 116.39 20.2549C117.42 19.7249 118.66 19.4549 120.06 19.4549C120.76 19.4549 121.35 19.5049 121.79 19.5949C122.49 19.7349 122.63 20.0849 122.63 20.3549C122.63 20.4449 122.61 20.5549 122.58 20.6749L122.51 20.9249L122.27 20.8449C122.27 20.8449 122.05 20.7949 121.73 20.7349C121.23 20.6649 120.69 20.6249 120.14 20.6249C118.55 20.6249 117.24 21.0449 116.25 21.8649C115.18 22.7749 114.63 24.0849 114.63 25.7649C114.63 27.4449 115.15 28.7649 116.16 29.6849C117.18 30.6149 118.58 31.0849 120.31 31.0849C121.37 31.0849 122.2 30.9349 122.78 30.6349C122.53 30.3349 122.41 30.0449 122.41 29.7749C122.41 29.3149 122.69 29.0449 123.16 29.0449V29.0349ZM121.96 25.8749C121.09 25.8749 120.99 25.3349 120.99 25.0949C120.99 24.5849 121.3 24.2849 121.85 24.2849H123.17V24.5349C123.17 25.0049 123.07 25.3349 122.87 25.5449C122.67 25.7549 122.36 25.8649 121.96 25.8649V25.8749ZM121.86 24.7949C121.52 24.7949 121.5 24.9349 121.5 25.1049C121.5 25.2049 121.5 25.3849 121.97 25.3849C122.23 25.3849 122.42 25.3249 122.52 25.2149C122.58 25.1549 122.64 25.0349 122.67 24.7949H121.87H121.86Z" fill="#CDD1F2"/>
<path d="M156.67 31.5149C154.04 31.5549 151.96 30.8349 150.42 29.3649C148.84 27.8749 148.03 25.8249 147.99 23.1949C147.95 20.5649 148.72 18.4749 150.3 16.9049C151.76 15.4449 153.62 14.7049 155.89 14.6649C158.16 14.6249 159.99 15.2449 161.38 16.5049C162.77 17.7649 163.48 19.3349 163.51 21.2049C163.54 22.8749 162.99 24.1349 161.88 25.0049C160.85 25.8249 159.43 26.2449 157.63 26.2749C156.28 26.2949 155.14 26.0249 154.2 25.4649C154.13 25.5249 154.09 25.6349 154.09 25.7849C154.09 26.0749 154.47 26.3349 155.23 26.5749C155.98 26.8249 156.84 26.9449 157.79 26.9249C158.74 26.9049 159.61 26.7749 160.39 26.5149C161.17 26.2549 161.79 25.9449 162.26 25.6049C162.49 25.8049 162.68 26.1849 162.83 26.7249C162.98 27.2649 163.05 27.7749 163.06 28.2249C163.07 28.9649 162.73 29.6649 162.14 30.0849C161.67 30.4149 161.19 30.6649 160.7 30.8449C159.61 31.2749 158.27 31.4949 156.7 31.5249L156.67 31.5149ZM156.33 21.6149C156.8 21.6149 157.04 21.4149 157.03 21.0449C157.03 20.6949 156.77 20.5249 156.27 20.5349C155.77 20.5449 155.48 20.8249 155.42 21.3849C155.69 21.5449 155.99 21.6249 156.33 21.6149Z" fill="#5760BC"/>
<path d="M156.45 31.765C153.87 31.765 151.78 31.015 150.23 29.535C148.61 28.005 147.76 25.875 147.72 23.185C147.68 20.495 148.48 18.325 150.1 16.715C151.6 15.215 153.53 14.445 155.86 14.405C158.17 14.355 160.09 15.005 161.52 16.305C162.96 17.605 163.7 19.245 163.73 21.185C163.76 22.925 163.18 24.275 162 25.185C160.93 26.035 159.45 26.475 157.6 26.505C156.35 26.535 155.25 26.295 154.33 25.825C154.38 25.915 154.57 26.105 155.27 26.325C156 26.565 156.83 26.685 157.75 26.665C158.67 26.655 159.52 26.515 160.27 26.265C161.02 26.015 161.63 25.715 162.07 25.385L162.23 25.265L162.38 25.395C162.65 25.635 162.86 26.045 163.02 26.645C163.17 27.215 163.25 27.735 163.26 28.205C163.27 29.045 162.89 29.815 162.23 30.265C161.74 30.605 161.24 30.875 160.73 31.055C159.62 31.485 158.24 31.725 156.65 31.745C156.58 31.745 156.51 31.745 156.44 31.745L156.45 31.765ZM156.05 14.915C155.99 14.915 155.93 14.915 155.87 14.915C153.68 14.945 151.86 15.675 150.46 17.075C148.94 18.585 148.19 20.635 148.23 23.185C148.27 25.725 149.06 27.745 150.58 29.175C152.07 30.605 154.12 31.305 156.66 31.265C158.2 31.245 159.51 31.015 160.58 30.605C161.05 30.435 161.52 30.185 161.97 29.875C162.48 29.515 162.8 28.885 162.79 28.225C162.79 27.795 162.71 27.305 162.57 26.785C162.45 26.345 162.32 26.085 162.21 25.925C161.75 26.235 161.16 26.505 160.45 26.745C159.65 27.015 158.75 27.155 157.78 27.175C156.79 27.185 155.91 27.065 155.14 26.805C154.59 26.635 153.84 26.345 153.83 25.785C153.83 25.545 153.89 25.375 154.03 25.265L154.17 25.155L154.32 25.245C155.21 25.775 156.32 26.045 157.62 26.015C159.36 25.985 160.74 25.575 161.72 24.805C162.78 23.985 163.28 22.805 163.26 21.205C163.23 19.415 162.54 17.895 161.21 16.685C159.91 15.505 158.18 14.915 156.07 14.915H156.05ZM156.29 21.875C155.92 21.875 155.58 21.785 155.28 21.605L155.14 21.525L155.16 21.365C155.24 20.685 155.63 20.305 156.26 20.295C156.57 20.295 156.8 20.345 156.97 20.465C157.11 20.555 157.27 20.735 157.27 21.065C157.27 21.395 157.13 21.585 157.01 21.685C156.85 21.815 156.62 21.885 156.33 21.885C156.33 21.885 156.31 21.885 156.29 21.885V21.875ZM155.69 21.255C155.88 21.335 156.09 21.385 156.32 21.375C156.54 21.375 156.65 21.325 156.7 21.285C156.72 21.265 156.78 21.225 156.78 21.065C156.78 20.945 156.74 20.905 156.7 20.875C156.64 20.835 156.53 20.785 156.28 20.795C156.04 20.795 155.8 20.865 155.7 21.255H155.69Z" fill="#CDD1F2"/>
<path d="M168.57 31.265C167.41 31.265 166.48 31.055 165.79 30.635C165.02 30.195 164.63 29.545 164.63 28.695V21.175V21.155C164.06 20.345 163.77 19.355 163.77 18.175C163.77 17.635 163.83 17.125 163.95 16.655C164.18 15.725 165.06 15.095 166.02 15.095H166.88C167.14 15.095 167.38 15.115 167.6 15.155C168.64 15.325 169.14 16.275 168.71 17.245C168.52 17.675 168.43 17.975 168.43 18.155C168.43 18.335 168.48 18.465 168.57 18.555C168.66 18.645 168.8 18.685 168.97 18.685C169.31 17.325 169.96 16.335 170.91 15.705C171.7 15.165 172.67 14.905 173.83 14.905C174.64 14.905 175.35 15.005 175.97 15.195C176.81 15.455 177.4 16.195 177.54 17.065C177.62 17.555 177.66 18.095 177.66 18.685C177.66 19.245 177.61 19.775 177.5 20.275C177.28 21.275 176.46 22.035 175.46 22.225C174.93 22.325 174.38 22.375 173.84 22.375C173.25 22.375 172.72 22.335 172.25 22.255C171.78 22.175 171.43 22.095 171.22 22.025C171.14 22.105 171.1 22.215 171.1 22.365C171.1 22.515 171.2 22.625 171.39 22.695C171.58 22.765 172.35 22.935 172.35 22.935V27.505C172.35 29.585 170.66 31.285 168.58 31.285L168.57 31.265Z" fill="#5760BC"/>
<path d="M168.57 31.515C167.37 31.515 166.39 31.295 165.66 30.845C164.82 30.365 164.38 29.635 164.38 28.685V21.235C163.81 20.405 163.52 19.375 163.52 18.165C163.52 17.605 163.58 17.075 163.71 16.585C163.97 15.555 164.92 14.835 166.02 14.835H166.88C167.15 14.835 167.41 14.855 167.64 14.895C168.22 14.995 168.67 15.295 168.92 15.755C169.17 16.215 169.17 16.785 168.94 17.325C168.71 17.835 168.68 18.055 168.68 18.135C168.68 18.205 168.69 18.305 168.74 18.355C168.75 18.365 168.77 18.375 168.79 18.385C169.16 17.085 169.83 16.105 170.78 15.475C171.61 14.915 172.64 14.625 173.84 14.625C174.67 14.625 175.42 14.725 176.05 14.925C176.97 15.215 177.64 16.005 177.8 16.995C177.88 17.505 177.92 18.055 177.92 18.655C177.92 19.255 177.86 19.775 177.75 20.295C177.52 21.375 176.64 22.225 175.51 22.435C174.97 22.535 174.42 22.595 173.85 22.595C173.25 22.595 172.7 22.555 172.22 22.465C171.86 22.405 171.58 22.345 171.37 22.295C171.37 22.305 171.37 22.315 171.37 22.335C171.37 22.375 171.45 22.415 171.49 22.435C171.62 22.485 172.12 22.605 172.41 22.665L172.61 22.705V27.475C172.61 29.695 170.81 31.505 168.59 31.505L168.57 31.515ZM166.02 15.345C165.15 15.345 164.4 15.905 164.2 16.715C164.09 17.165 164.03 17.655 164.03 18.175C164.03 19.295 164.3 20.255 164.84 21.015L164.89 21.075V21.175V28.695C164.89 29.465 165.23 30.025 165.92 30.425C166.58 30.825 167.47 31.025 168.57 31.025C170.51 31.025 172.09 29.435 172.09 27.495V23.125C171.84 23.065 171.44 22.975 171.29 22.915C170.9 22.765 170.84 22.495 170.84 22.355C170.84 22.145 170.9 21.965 171.03 21.845L171.14 21.735L171.29 21.785C171.49 21.845 171.83 21.925 172.29 22.005C172.75 22.085 173.26 22.105 173.85 22.125C174.38 22.125 174.91 22.075 175.41 21.975C176.34 21.795 177.06 21.105 177.26 20.215C177.36 19.725 177.42 19.215 177.42 18.675C177.42 18.105 177.38 17.575 177.3 17.095C177.17 16.295 176.63 15.655 175.9 15.425C175.31 15.235 174.62 15.145 173.84 15.145C172.74 15.145 171.8 15.405 171.06 15.905C170.16 16.505 169.54 17.455 169.22 18.745L169.17 18.935H168.98C168.74 18.935 168.55 18.865 168.41 18.735C168.27 18.595 168.19 18.405 168.19 18.155C168.19 17.935 168.29 17.615 168.49 17.155C168.67 16.745 168.67 16.345 168.49 16.015C168.32 15.695 167.99 15.475 167.57 15.405C167.36 15.375 167.13 15.355 166.89 15.355H166.03L166.02 15.345Z" fill="#CDD1F2"/>
<path d="M96.9296 26.6148C96.5496 26.3748 96.2796 26.0248 96.1296 25.5748C95.9796 25.1248 95.8996 24.5448 95.8996 23.8348L95.9596 20.9248C95.9596 19.0248 95.4896 17.5248 94.5596 16.4348C93.6096 15.3448 92.2596 14.7948 90.5396 14.7948C89.7596 14.7948 89.0096 14.9548 88.2896 15.2748C87.5696 15.5948 86.9896 16.0648 86.5396 16.6848C86.2196 16.1848 85.7196 15.7448 85.0596 15.3648C84.3996 14.9848 83.6296 14.7948 82.7496 14.7948C81.5996 14.7948 80.5896 15.0448 79.7296 15.5448C78.9996 15.9848 78.4196 16.5748 77.9996 17.3148C77.6696 17.3148 77.5796 17.1648 77.5796 16.8648C77.5796 16.6848 77.7596 16.4848 77.9396 16.2448C78.1396 15.9948 77.9796 15.6348 77.7696 15.3948C77.2796 14.8348 76.2896 14.0148 74.8396 14.2548C73.3896 14.4948 72.4096 15.6848 72.1796 17.1048C72.1196 17.4448 72.0996 17.8048 72.0996 18.1748C72.0996 19.3548 72.3796 20.3548 72.9396 21.1648V28.0348C72.9396 29.0248 73.3696 29.9948 74.1596 30.5748C74.8396 31.0748 75.6796 31.3248 76.6596 31.3248C77.7296 31.3248 78.6396 31.1248 79.4096 30.7348C80.0696 30.3948 80.4396 29.6348 80.2996 28.8948C80.2096 28.4448 80.1696 27.9148 80.1696 27.3148V23.4348L79.9096 21.2548C80.0096 21.1748 80.1296 21.1348 80.2996 21.1348C80.7196 21.1348 80.9296 21.4648 80.9296 22.1148V27.2448C80.9296 28.7148 81.3096 29.7948 82.0796 30.4748C82.7096 31.0448 83.5996 31.3248 84.7396 31.3248C85.4496 31.3248 86.1396 31.1848 86.8196 30.9048C86.9996 30.8348 87.1596 30.7548 87.3296 30.6648C88.0096 30.3048 88.3096 29.4748 88.1096 28.7148C87.9696 28.1648 87.8896 27.5048 87.8896 26.7348V23.4348L87.6296 21.2548C87.7296 21.1748 87.8496 21.1348 88.0196 21.1348C88.4396 21.1348 88.6496 21.4648 88.6496 22.1148V26.7348C88.6496 28.3448 89.0796 29.5348 89.9496 30.3148C90.6796 30.9848 91.6596 31.3248 92.8596 31.3248C94.0596 31.3248 95.0496 30.9448 95.8196 30.1948C96.5796 29.4448 96.9696 28.4048 96.9696 27.0648V26.8448C96.9696 26.7248 96.9696 26.6448 96.9596 26.5948L96.9296 26.6148Z" fill="#5760BC"/>
<path d="M92.8398 31.5849C91.5698 31.5849 90.5398 31.2249 89.7598 30.5149C88.8398 29.6949 88.3798 28.4249 88.3798 26.7449V22.1249C88.3798 21.3949 88.1098 21.3949 87.9998 21.3949C87.9598 21.3949 87.9198 21.3949 87.8798 21.4049L88.1198 23.4149V26.7449C88.1198 27.4949 88.1898 28.1349 88.3298 28.6649C88.5598 29.5549 88.1798 30.4949 87.4298 30.9049C87.2598 30.9949 87.0798 31.0749 86.8998 31.1549C86.1898 31.4449 85.4598 31.5949 84.7198 31.5949C83.5198 31.5949 82.5698 31.2849 81.8898 30.6849C81.0798 29.9549 80.6598 28.8049 80.6598 27.2649V22.1349C80.6598 21.4049 80.3898 21.4049 80.2798 21.4049C80.2398 21.4049 80.1998 21.4049 80.1598 21.4149L80.3998 23.4249V27.3249C80.3998 27.9049 80.4398 28.4249 80.5298 28.8549C80.6898 29.7049 80.2798 30.5749 79.5098 30.9649C78.7098 31.3749 77.7498 31.5849 76.6498 31.5849C75.6098 31.5849 74.7198 31.3149 73.9998 30.7849C73.1698 30.1749 72.6798 29.1549 72.6798 28.0449V21.2449C72.1198 20.4049 71.8398 19.3749 71.8398 18.1749C71.8398 17.7949 71.8698 17.4149 71.9298 17.0649C72.1898 15.4749 73.3398 14.2449 74.7898 14.0049C76.3798 13.7449 77.4498 14.6549 77.9498 15.2349C78.2998 15.6349 78.3698 16.0949 78.1198 16.4049L78.0698 16.4649C77.9698 16.5949 77.8098 16.7949 77.8098 16.8649C77.8098 16.9849 77.8098 17.0349 77.8498 17.0549C78.2798 16.3449 78.8698 15.7649 79.5898 15.3349C80.4898 14.8149 81.5398 14.5549 82.7398 14.5549C83.6598 14.5549 84.4798 14.7549 85.1798 15.1549C85.7498 15.4849 86.2098 15.8549 86.5398 16.2749C86.9798 15.7449 87.5398 15.3349 88.1898 15.0449C88.9398 14.7149 89.7298 14.5449 90.5498 14.5449C92.3398 14.5449 93.7598 15.1249 94.7598 16.2649C95.7298 17.3949 96.2198 18.9649 96.2198 20.9149L96.1598 23.8349C96.1598 24.5149 96.2298 25.0649 96.3798 25.4849C96.5198 25.8849 96.7398 26.1749 97.0798 26.3949L97.1698 26.4549L97.1898 26.5649C97.1998 26.6249 97.2098 26.7249 97.2098 26.8649V27.0849C97.2098 28.4849 96.7998 29.5949 95.9898 30.3949C95.1798 31.1849 94.1298 31.5949 92.8598 31.5949L92.8398 31.5849ZM87.9898 20.8949C88.3198 20.8949 88.8698 21.0549 88.8698 22.1249V26.7449C88.8698 28.2749 89.2798 29.4149 90.0898 30.1449C90.7798 30.7749 91.6998 31.0949 92.8398 31.0949C93.9798 31.0949 94.9098 30.7449 95.6198 30.0449C96.3298 29.3449 96.6898 28.3549 96.6898 27.0949V26.8749C96.6898 26.8749 96.6898 26.7949 96.6898 26.7649C96.3098 26.4949 96.0498 26.1249 95.8898 25.6649C95.7298 25.1949 95.6498 24.5849 95.6498 23.8449L95.7098 20.9249C95.7098 19.0949 95.2598 17.6449 94.3698 16.6049C93.4698 15.5749 92.1798 15.0549 90.5398 15.0549C89.7998 15.0549 89.0698 15.2049 88.3898 15.5049C87.7098 15.8049 87.1598 16.2449 86.7398 16.8349L86.5298 17.1349L86.3298 16.8249C86.0298 16.3649 85.5598 15.9449 84.9298 15.5849C84.3098 15.2249 83.5698 15.0449 82.7398 15.0449C81.6398 15.0449 80.6598 15.2849 79.8398 15.7549C79.1498 16.1649 78.5998 16.7349 78.1998 17.4349L78.1298 17.5649H77.9798C77.5298 17.5649 77.3098 17.3249 77.3098 16.8649C77.3098 16.6149 77.4798 16.4049 77.6798 16.1549L77.7298 16.0949C77.8298 15.9749 77.7298 15.7349 77.5698 15.5649C77.1398 15.0749 76.2098 14.2849 74.8698 14.5049C73.6298 14.7149 72.6398 15.7749 72.4198 17.1549C72.3698 17.4749 72.3398 17.8249 72.3398 18.1849C72.3398 19.3149 72.6098 20.2749 73.1398 21.0349L73.1798 21.0949V28.0449C73.1798 28.9949 73.5998 29.8649 74.2998 30.3849C74.9298 30.8549 75.7298 31.0849 76.6498 31.0849C77.6698 31.0849 78.5598 30.8949 79.2898 30.5249C79.8598 30.2349 80.1698 29.5849 80.0498 28.9549C79.9598 28.4849 79.9198 27.9449 79.9198 27.3349V23.4549L79.6498 21.1649L79.7598 21.0749C79.8998 20.9649 80.0798 20.9049 80.2998 20.9049C80.6298 20.9049 81.1798 21.0649 81.1798 22.1349V27.2649C81.1798 28.6549 81.5398 29.6849 82.2398 30.3149C82.8198 30.8349 83.6598 31.0949 84.7398 31.0949C85.4098 31.0949 86.0798 30.9649 86.7298 30.6949C86.8998 30.6249 87.0598 30.5549 87.2098 30.4649C87.7598 30.1649 88.0398 29.4649 87.8598 28.7949C87.7098 28.2249 87.6298 27.5349 87.6298 26.7449V23.4349L87.3598 21.1449L87.4698 21.0549C87.6098 20.9449 87.7898 20.8849 88.0098 20.8849L87.9898 20.8949Z" fill="#CDD1F2"/>
<path d="M111.929 16.3748C111.079 15.3648 109.999 14.6848 108.699 14.3248C107.749 14.0748 106.719 14.0148 105.619 14.1448C104.519 14.2748 103.599 14.5948 102.859 15.1248C102.639 15.2848 102.429 15.4748 102.229 15.6848C101.719 14.9348 100.869 14.4448 99.9291 14.4148C99.7891 14.4148 99.6491 14.4048 99.4991 14.4148C99.0791 14.4648 98.6891 14.5948 98.3491 14.8048C97.6491 15.2248 97.2191 15.9748 97.0791 16.7748C97.0591 16.8848 97.0391 16.9848 97.0291 17.0948C96.9991 17.3248 96.9791 17.5348 96.9691 17.7448C96.9491 18.0848 96.9491 18.4048 96.9691 18.7048C97.1091 19.8948 97.4991 20.8648 98.1691 21.6048C97.9091 25.2148 97.7891 27.8448 98.2791 30.6448C98.4291 31.5148 98.6491 32.3748 98.9991 33.1948C99.5991 34.5948 100.299 35.3448 100.999 35.7048C101.779 36.1348 102.869 36.2748 104.269 36.1148C104.659 36.0748 105.039 36.0048 105.399 35.9148C106.439 35.6548 107.259 34.7548 107.289 33.6748C107.329 32.3548 106.309 31.3248 105.039 31.2348C104.899 31.2348 104.779 31.2148 104.669 31.1948C104.209 31.1248 103.959 30.9348 103.919 30.6448C103.909 30.5148 103.929 30.4348 103.989 30.3848C104.769 30.6248 105.829 30.6748 107.169 30.5248C109.559 30.2548 111.359 29.3448 112.549 27.7848C113.739 26.2348 114.189 24.1948 113.909 21.6648C113.649 19.4148 112.989 17.6548 111.929 16.3748ZM107.389 23.9948C107.419 24.2548 107.409 24.4448 107.349 24.5548C107.289 24.6648 107.189 24.7348 107.029 24.7548C106.869 24.7748 106.759 24.7548 106.679 24.6948L106.459 22.7448C106.389 22.1648 106.259 21.3948 106.069 20.4448C106.159 20.3348 106.269 20.2748 106.399 20.2648C106.609 20.2448 106.779 20.3748 106.889 20.6748C106.999 20.9748 107.109 21.5848 107.219 22.5148L107.389 23.9948Z" fill="#5760BC"/>
<path d="M103.21 36.4249C102.26 36.4249 101.48 36.2549 100.88 35.9249C100.05 35.4849 99.3395 34.6049 98.7695 33.2949C98.4495 32.5549 98.2095 31.7049 98.0295 30.6949C97.5195 27.8449 97.6595 25.1549 97.9095 21.6949C97.2595 20.9249 96.8595 19.9349 96.7195 18.7449C96.6895 18.4649 96.6795 18.1349 96.7095 17.7449C96.7195 17.5249 96.7395 17.3049 96.7695 17.0749C96.7895 16.9649 96.7995 16.8549 96.8295 16.7449C96.9995 15.8149 97.5095 15.0349 98.2195 14.6049C98.5995 14.3749 99.0195 14.2349 99.4695 14.1849C99.6195 14.1649 99.7595 14.1749 99.9095 14.1849C100.83 14.2149 101.68 14.6349 102.26 15.3249C102.42 15.1749 102.57 15.0549 102.72 14.9449C103.49 14.3949 104.45 14.0449 105.6 13.9149C106.73 13.7849 107.8 13.8549 108.77 14.1049C110.12 14.4649 111.25 15.1849 112.13 16.2349C113.22 17.5449 113.91 19.3749 114.17 21.6649C114.46 24.2449 113.99 26.3649 112.76 27.9649C111.53 29.5649 109.66 30.5249 107.21 30.7949C105.99 30.9349 104.98 30.9049 104.2 30.7249C104.24 30.8049 104.36 30.9149 104.71 30.9749C104.81 30.9949 104.92 31.0049 105.06 31.0149C106.5 31.1149 107.59 32.2949 107.54 33.7149C107.5 34.8749 106.65 35.8949 105.46 36.1849C105.09 36.2749 104.69 36.3449 104.29 36.3949C103.91 36.4349 103.54 36.4549 103.2 36.4549L103.21 36.4249ZM99.6995 14.6549C99.6395 14.6549 99.5795 14.6549 99.5195 14.6549C99.1395 14.6949 98.7895 14.8149 98.4695 15.0049C97.8795 15.3549 97.4595 16.0149 97.3095 16.8049C97.2895 16.9049 97.2695 17.0149 97.2595 17.1149C97.2295 17.3349 97.2095 17.5449 97.1995 17.7449C97.1795 18.1049 97.1795 18.4049 97.1995 18.6549C97.3295 19.7849 97.7095 20.7149 98.3295 21.4149L98.3995 21.4949V21.6049C98.1395 25.0849 97.9995 27.7649 98.4995 30.5849C98.6695 31.5549 98.8995 32.3749 99.2095 33.0749C99.7295 34.2749 100.36 35.0849 101.1 35.4649C101.83 35.8749 102.88 35.9949 104.22 35.8449C104.6 35.8049 104.97 35.7349 105.32 35.6449C106.28 35.4049 106.99 34.5649 107.02 33.6449C107.06 32.5049 106.17 31.5449 105 31.4649C104.85 31.4549 104.72 31.4449 104.61 31.4249C103.88 31.3049 103.69 30.9449 103.65 30.6549C103.62 30.3749 103.73 30.2349 103.82 30.1649L103.92 30.0949L104.04 30.1349C104.79 30.3649 105.82 30.4149 107.12 30.2649C109.43 30.0049 111.18 29.1149 112.33 27.6249C113.48 26.1349 113.92 24.1349 113.64 21.6849C113.39 19.4949 112.74 17.7649 111.71 16.5249C110.9 15.5549 109.85 14.8949 108.6 14.5649C107.69 14.3249 106.68 14.2749 105.61 14.3949C104.55 14.5149 103.67 14.8349 102.97 15.3349C102.78 15.4749 102.58 15.6449 102.37 15.8649L102.16 16.0849L101.99 15.8349C101.51 15.1349 100.73 14.7049 99.8895 14.6749C99.8095 14.6749 99.7495 14.6749 99.6795 14.6749L99.6995 14.6549ZM106.93 25.0049C106.77 25.0049 106.63 24.9649 106.53 24.8849L106.45 24.8249L106.22 22.7749C106.16 22.2049 106.02 21.4449 105.83 20.5049L105.81 20.3949L105.88 20.3049C106.01 20.1449 106.18 20.0449 106.38 20.0249C106.58 20.0049 106.92 20.0449 107.13 20.5949C107.25 20.9149 107.36 21.5349 107.47 22.4949L107.64 23.9749C107.68 24.2949 107.66 24.5149 107.58 24.6749C107.52 24.8049 107.37 24.9749 107.07 25.0149C107.03 25.0149 106.98 25.0149 106.94 25.0149L106.93 25.0049ZM106.91 24.5049C106.91 24.5049 106.96 24.5049 107 24.5049C107.1 24.4949 107.11 24.4649 107.12 24.4449C107.13 24.4149 107.17 24.3149 107.14 24.0149L106.97 22.5349C106.87 21.6349 106.76 21.0349 106.66 20.7549C106.56 20.4949 106.47 20.5049 106.43 20.5049C106.4 20.5049 106.37 20.5149 106.34 20.5349C106.52 21.4249 106.65 22.1549 106.71 22.7149L106.91 24.5049Z" fill="#CDD1F2"/>
<path d="M145.2 16.3648C144.35 15.3548 143.27 14.6748 141.96 14.3248C141.01 14.0848 139.98 14.0248 138.88 14.1548C137.78 14.2848 136.86 14.6148 136.12 15.1448C135.9 15.3048 135.69 15.4948 135.49 15.7048C134.98 14.9548 134.13 14.4648 133.19 14.4348C133.05 14.4348 132.91 14.4248 132.76 14.4348C132.34 14.4848 131.95 14.6148 131.61 14.8248C130.91 15.2448 130.48 15.9948 130.34 16.7948C130.32 16.9048 130.3 17.0048 130.29 17.1148C130.26 17.3448 130.24 17.5548 130.23 17.7648C130.21 18.1048 130.21 18.4248 130.24 18.7248C130.38 19.9148 130.78 20.8848 131.44 21.6148C131.18 25.2248 131.07 27.8548 131.57 30.6548C131.73 31.5248 131.95 32.3848 132.3 33.1948C132.91 34.5948 133.6 35.3348 134.31 35.7048C135.09 36.1348 136.18 36.2748 137.58 36.1048C137.97 36.0548 138.35 35.9948 138.71 35.9048C139.75 35.6448 140.57 34.7348 140.6 33.6648C140.64 32.3448 139.61 31.3148 138.34 31.2248C138.2 31.2248 138.08 31.2048 137.97 31.1848C137.51 31.1148 137.26 30.9248 137.22 30.6348C137.21 30.5048 137.22 30.4248 137.29 30.3748C138.07 30.6148 139.13 30.6648 140.47 30.5048C142.86 30.2248 144.65 29.3148 145.84 27.7548C147.03 26.1948 147.48 24.1548 147.19 21.6348C146.93 19.3848 146.27 17.6248 145.2 16.3448V16.3648ZM140.67 23.9848C140.7 24.2448 140.69 24.4348 140.63 24.5448C140.57 24.6548 140.47 24.7248 140.31 24.7448C140.15 24.7648 140.04 24.7448 139.96 24.6848L139.74 22.7348C139.67 22.1548 139.54 21.3848 139.34 20.4448C139.43 20.3348 139.54 20.2748 139.67 20.2548C139.88 20.2348 140.05 20.3648 140.16 20.6648C140.27 20.9648 140.38 21.5748 140.49 22.5048L140.66 23.9848H140.67Z" fill="#5760BC"/>
<path d="M136.5 36.4349C135.56 36.4349 134.78 36.2649 134.18 35.9349C133.35 35.4949 132.63 34.6149 132.07 33.3049C131.75 32.5649 131.51 31.7149 131.33 30.7049C130.82 27.8549 130.95 25.1649 131.19 21.7049C130.54 20.9449 130.13 19.9449 130 18.7549C129.97 18.4749 129.96 18.1549 129.99 17.7549C130 17.5349 130.02 17.3149 130.05 17.0849C130.07 16.9749 130.08 16.8649 130.1 16.7549C130.27 15.8149 130.78 15.0349 131.49 14.6149C131.87 14.3849 132.29 14.2449 132.74 14.1949C132.89 14.1749 133.04 14.1849 133.19 14.1949C134.11 14.2249 134.96 14.6449 135.53 15.3349C135.69 15.1849 135.84 15.0649 135.99 14.9549C136.76 14.4049 137.72 14.0549 138.87 13.9249C140 13.7949 141.07 13.8549 142.04 14.1049C143.39 14.4649 144.53 15.1849 145.41 16.2249C146.51 17.5349 147.2 19.3649 147.46 21.6449C147.76 24.2249 147.29 26.3449 146.06 27.9549C144.83 29.5549 142.97 30.5149 140.52 30.7949C139.3 30.9349 138.29 30.9149 137.51 30.7249C137.55 30.8049 137.67 30.9149 138.02 30.9749C138.12 30.9949 138.23 31.0049 138.36 31.0149C139.8 31.1149 140.89 32.2949 140.85 33.7049C140.82 34.8649 139.96 35.8849 138.77 36.1749C138.4 36.2649 138 36.3349 137.6 36.3849C137.21 36.4249 136.85 36.4549 136.5 36.4549V36.4349ZM132.98 14.6749C132.92 14.6749 132.86 14.6749 132.79 14.6749C132.42 14.7149 132.06 14.8349 131.74 15.0249C131.15 15.3749 130.73 16.0349 130.59 16.8249C130.57 16.9249 130.55 17.0349 130.54 17.1349C130.51 17.3549 130.49 17.5649 130.48 17.7649C130.46 18.1349 130.46 18.4249 130.49 18.6749C130.62 19.8049 131 20.7349 131.63 21.4349L131.7 21.5149V21.6249C131.45 25.1049 131.31 27.7849 131.82 30.6049C131.99 31.5749 132.23 32.3949 132.53 33.0949C133.05 34.2949 133.69 35.0949 134.42 35.4849C135.15 35.8949 136.2 36.0149 137.55 35.8649C137.93 35.8249 138.3 35.7549 138.65 35.6649C139.62 35.4249 140.32 34.5949 140.35 33.6649C140.38 32.5249 139.5 31.5649 138.33 31.4849C138.18 31.4849 138.05 31.4649 137.94 31.4449C137.21 31.3249 137.02 30.9649 136.98 30.6849C136.95 30.4049 137.06 30.2649 137.15 30.1949L137.25 30.1149L137.37 30.1549C138.12 30.3849 139.15 30.4249 140.45 30.2749C142.76 30.0049 144.51 29.1149 145.65 27.6249C146.79 26.1349 147.23 24.1349 146.95 21.6849C146.7 19.4949 146.05 17.7649 145.01 16.5249C144.2 15.5549 143.15 14.9049 141.9 14.5649C140.99 14.3349 139.98 14.2749 138.91 14.3949C137.85 14.5149 136.97 14.8349 136.27 15.3349C136.08 15.4749 135.88 15.6449 135.67 15.8649L135.46 16.0849L135.29 15.8349C134.81 15.1349 134.03 14.7049 133.19 14.6749C133.12 14.6749 133.05 14.6749 132.98 14.6749ZM140.22 25.0149C140.06 25.0149 139.92 24.9749 139.82 24.8949L139.74 24.8349L139.5 22.7849C139.43 22.2149 139.3 21.4449 139.11 20.5149L139.09 20.4049L139.16 20.3149C139.29 20.1549 139.46 20.0549 139.66 20.0349C139.85 20.0149 140.2 20.0549 140.41 20.6049C140.53 20.9249 140.64 21.5449 140.75 22.5049L140.92 23.9849C140.96 24.3049 140.94 24.5249 140.86 24.6849C140.79 24.8149 140.65 24.9849 140.35 25.0249C140.31 25.0249 140.26 25.0249 140.22 25.0249V25.0149ZM140.2 24.5149C140.2 24.5149 140.25 24.5149 140.29 24.5149C140.39 24.5049 140.4 24.4749 140.41 24.4549C140.42 24.4349 140.46 24.3249 140.42 24.0249L140.25 22.5449C140.15 21.6349 140.04 21.0449 139.94 20.7649C139.84 20.5049 139.75 20.5049 139.71 20.5149C139.68 20.5149 139.65 20.5249 139.62 20.5449C139.8 21.4349 139.93 22.1649 139.99 22.7249L140.2 24.5149Z" fill="#CDD1F2"/>
</g>
<defs>
<clipPath id="clip0_135_35238">
<rect width="157.91" height="24.87" fill="white" transform="translate(20 11.5649)"/>
</clipPath>
</defs>
</svg>
