<svg width="30" height="28" viewBox="0 0 30 28" fill="none" xmlns="http://www.w3.org/2000/svg">
<path d="M28.6067 5.6413L23.3889 0.546697C23.0441 0.213445 22.5775 0.0263672 22.0912 0.0263672C21.6048 0.0263672 21.1382 0.213445 20.7934 0.546697L2.29561 18.4901L0.606717 25.5707C0.548456 25.8295 0.550453 26.0977 0.612563 26.3557C0.674672 26.6137 0.795325 26.855 0.965707 27.0619C1.13609 27.2688 1.3519 27.4361 1.59736 27.5516C1.84283 27.6671 2.11176 27.7278 2.3845 27.7294C2.51158 27.7419 2.63963 27.7419 2.76672 27.7294L10.1356 26.0888L28.6067 8.1627C28.9498 7.82775 29.1424 7.37449 29.1424 6.902C29.1424 6.42951 28.9498 5.97624 28.6067 5.6413ZM9.24672 24.5345L2.34005 25.942L3.91338 19.3622L17.7534 5.96943L23.0867 11.1504L9.24672 24.5345ZM24.2778 9.89832L18.9445 4.71736L22.0378 1.72968L27.2823 6.91063L24.2778 9.89832Z" fill="#8D8D8D"/>
</svg>
