<svg width="152" height="235" viewBox="0 0 152 235" fill="none" xmlns="http://www.w3.org/2000/svg">
<path d="M105.125 137.118C105.125 137.118 130.444 141.452 135.352 130.927C139.624 121.777 134.911 102.273 81.8005 96.3602C81.8005 96.3602 106.311 98.5497 109.319 91.3342C112.074 84.7298 109.13 55.1793 38.2161 53.3329C20.0463 38.6776 -4.28391 17.9744 -30.6343 0.0689315C-31.3982 0.992163 -37.8678 25.8463 -37.8678 25.8463C-37.8678 25.8463 21.6018 32.6524 23.8452 63.6201C23.8452 63.6201 -0.984487 104.051 3.2113 135.555C7.40709 167.06 26.4663 122.202 26.4663 122.202C26.4663 122.202 8.83471 195.458 25.2427 187.72C41.6507 179.982 47.8553 160.758 47.8553 160.758C47.8553 160.758 39.6345 228.385 59.2067 227.648C78.7774 226.921 77.974 196.277 77.974 196.277C77.974 196.277 90.1112 241.647 117.789 233.168C141.53 214.094 115.959 178.041 115.959 178.041C115.959 178.041 139.965 195.709 150.35 176.304C160.736 156.9 105.11 137.106 105.11 137.106L105.125 137.118ZM110.857 216.747C110.857 216.747 110.178 214.752 108.888 211.217C93.6682 172.052 32.9732 73.6715 32.9732 73.6715C70.7274 111.152 101.064 189.74 108.888 211.217C109.666 213.225 110.332 215.077 110.857 216.747Z" fill="white"/>
</svg>
