<svg width="123" height="73" viewBox="0 0 123 73" fill="none" xmlns="http://www.w3.org/2000/svg">
<path d="M0.835938 17.5677C0.835938 17.5677 24.885 28.9765 41.689 27.8056V52.6751C41.689 52.6751 51.8279 56.7734 61.9719 38.629C61.9719 38.629 79.6482 51.5042 101.091 37.4581C101.091 37.4581 119.054 37.7482 120.214 57.0635C121.374 76.3788 120.214 71.9852 120.214 71.9852C120.214 71.9852 135.571 4.98265 85.1538 5.27797C85.1538 5.27797 80.228 21.9561 67.7699 14.3502C55.3118 6.74424 43.7209 -4.95997 39.375 2.64595C35.029 10.2519 39.6623 17.2775 39.6623 17.2775C39.6623 17.2775 12.7142 8.50065 0.835938 17.5677Z" fill="#CDD1F2"/>
</svg>
