<svg width="1918" height="375" viewBox="0 0 1918 375" fill="none" xmlns="http://www.w3.org/2000/svg">
<path d="M394.41 330.586C395.101 329.401 395.817 328.23 396.558 327.068C395.822 328.225 395.106 329.401 394.41 330.586Z" fill="white"/>
<path d="M373.287 341.657C377.277 341.929 381.218 342.374 385.093 342.985C381.218 342.374 377.277 341.929 373.287 341.657Z" fill="white"/>
<path d="M391.446 336.003C392.383 334.17 393.374 332.364 394.41 330.586C393.369 332.364 392.383 334.17 391.446 336.003Z" fill="white"/>
<path d="M403.773 317.007C404.64 315.932 405.526 314.871 406.427 313.823C405.521 314.871 404.635 315.932 403.773 317.007Z" fill="white"/>
<path d="M401.245 320.273C402.066 319.171 402.912 318.077 403.779 317.002C402.912 318.077 402.071 319.166 401.245 320.273Z" fill="white"/>
<path d="M391.447 336.003C390.2 338.447 389.044 340.941 387.987 343.477C389.044 340.941 390.2 338.447 391.447 336.003Z" fill="white"/>
<path d="M406.432 313.824C407.338 312.776 408.264 311.747 409.205 310.732C408.259 311.747 407.338 312.776 406.432 313.824Z" fill="white"/>
<path d="M416.64 303.418C415.604 304.351 414.582 305.302 413.581 306.271C414.582 305.302 415.604 304.355 416.64 303.418Z" fill="white"/>
<path d="M442.73 285.498C441.619 286.067 440.517 286.651 439.431 287.253C440.522 286.651 441.619 286.067 442.73 285.498Z" fill="white"/>
<path d="M433.027 291.029C431.98 291.686 430.949 292.361 429.928 293.05C425.817 295.82 421.907 298.82 418.212 302.031C421.907 298.82 425.822 295.82 429.928 293.05C430.949 292.361 431.98 291.69 433.022 291.029H433.027Z" fill="white"/>
<path d="M433.027 291.029C435.115 289.71 437.253 288.452 439.431 287.253C437.253 288.452 435.115 289.71 433.027 291.029Z" fill="white"/>
<path d="M1498.07 300.478C1491.35 294.878 1483.95 289.954 1476 285.819C1475.95 285.865 1475.9 285.907 1475.85 285.953C1483.85 290.037 1491.3 294.915 1498.07 300.474L1498.07 300.478Z" fill="white"/>
<path d="M1530.49 343.417C1530.52 343.496 1530.56 343.569 1530.59 343.647C1538.28 342.264 1546.22 341.534 1554.36 341.534C1568.33 341.534 1581.76 343.675 1594.27 347.616C1581.62 343.564 1568.04 341.359 1553.89 341.359C1545.89 341.359 1538.07 342.076 1530.5 343.422L1530.49 343.417Z" fill="white"/>
<path d="M1594.26 347.611C1581.75 343.674 1568.33 341.529 1554.35 341.529C1546.22 341.529 1538.28 342.26 1530.59 343.642C1530.56 343.564 1530.52 343.491 1530.49 343.413C1530.37 343.436 1530.24 343.454 1530.12 343.477C1523.97 328.721 1514.51 315.463 1502.6 304.457C1501.13 303.097 1499.61 301.769 1498.06 300.478C1491.29 294.92 1483.84 290.036 1475.84 285.957C1475.89 285.911 1475.94 285.87 1475.99 285.824C1475.78 285.718 1475.58 285.608 1475.37 285.502C1457.74 276.466 1437.43 271.312 1415.8 271.312C1407.32 271.312 1399.04 272.106 1391.04 273.613C1371.62 235.158 1329.19 208.477 1279.96 208.477C1277.76 208.477 1275.58 208.537 1273.42 208.642C1215.73 211.435 1168.64 250.883 1159.29 302.077C1148.9 298.829 1137.75 297.065 1126.16 297.065C1075.49 297.065 1033.41 330.724 1024.98 375H1641.2C1628.18 362.826 1612.17 353.358 1594.25 347.616L1594.26 347.611Z" fill="url(#paint0_linear_135_35267)"/>
<path d="M439.431 287.253C437.253 288.452 435.115 289.71 433.028 291.029C431.981 291.686 430.95 292.361 429.933 293.05C425.823 295.82 421.913 298.82 418.218 302.031C417.692 302.49 417.166 302.954 416.646 303.418C415.609 304.351 414.588 305.302 413.587 306.271C412.085 307.723 410.623 309.211 409.206 310.732C408.259 311.747 407.338 312.776 406.432 313.823C405.526 314.871 404.64 315.932 403.778 317.007C402.912 318.082 402.071 319.171 401.245 320.278C399.598 322.488 398.036 324.752 396.559 327.072C395.823 328.23 395.107 329.406 394.411 330.591C393.369 332.369 392.383 334.174 391.447 336.007C390.2 338.451 389.044 340.946 387.987 343.482C387.026 343.307 386.06 343.146 385.093 342.99C381.218 342.379 377.278 341.933 373.288 341.662C370.294 341.46 367.27 341.355 364.22 341.355C330.015 341.355 299.098 354.24 276.894 375H893.118C884.697 330.724 842.611 297.065 791.943 297.065C780.352 297.065 769.208 298.829 758.814 302.077C749.116 248.963 698.788 208.481 638.142 208.481C597.603 208.481 561.675 226.577 539.41 254.438C534.639 260.411 530.488 266.828 527.063 273.618C519.068 272.111 510.787 271.316 502.305 271.316C480.676 271.316 460.364 276.471 442.731 285.507C441.619 286.076 440.518 286.66 439.431 287.262V287.253Z" fill="url(#paint1_linear_135_35267)"/>
<path d="M364.22 341.355C367.269 341.355 370.293 341.456 373.287 341.662C377.278 341.933 381.218 342.379 385.093 342.99C386.064 343.142 387.026 343.307 387.987 343.482C389.043 340.946 390.2 338.451 391.447 336.007C392.383 334.174 393.374 332.369 394.411 330.591C395.102 329.406 395.817 328.234 396.558 327.072C398.035 324.752 399.598 322.488 401.245 320.278C402.066 319.175 402.912 318.082 403.778 317.007C404.644 315.932 405.53 314.871 406.432 313.823C407.338 312.776 408.264 311.747 409.205 310.732C410.622 309.211 412.084 307.723 413.586 306.271C414.588 305.302 415.609 304.355 416.645 303.418C417.166 302.95 417.687 302.49 418.217 302.031C421.912 298.82 425.828 295.82 429.933 293.05C430.954 292.361 431.986 291.69 433.032 291.029C435.12 289.71 437.258 288.452 439.436 287.253C440.527 286.651 441.624 286.067 442.735 285.498C430.294 274.05 415.474 264.779 399.012 258.366C399.292 255.068 399.437 251.737 399.437 248.375C399.437 224.785 392.388 202.707 380.116 183.812C374.789 175.612 368.476 168.014 361.331 161.151C336.829 137.616 302.513 122.751 264.407 122.094C246.958 79.8944 205.578 48.4998 155.466 41.8755C150.995 41.2829 146.454 40.8878 141.858 40.704C139.805 40.6213 137.742 40.5754 135.664 40.5754C65.6055 40.5754 7.76807 88.5951 -0.878499 150.723L-2 150.208V374.688C-2 374.798 -1.58945 374.904 -0.793385 375H276.893C299.098 354.24 330.014 341.355 364.22 341.355Z" fill="url(#paint2_linear_135_35267)"/>
<path d="M1503.07 304.819C1514.93 315.711 1524.34 328.827 1530.49 343.412C1538.07 342.066 1545.89 341.35 1553.89 341.35C1568.04 341.35 1581.62 343.555 1594.26 347.607C1612.37 353.308 1628.54 362.78 1641.67 374.991H1918V143.666C1905.61 85.8708 1849.84 42.2612 1782.91 42.2612C1763.76 42.2612 1745.53 45.8307 1728.97 52.2805C1694.63 65.6487 1667.45 91.3881 1654.17 123.371C1607.64 124.165 1566.76 146.037 1542.5 178.961C1531.1 194.429 1523.37 212.336 1520.45 231.648C1519.59 237.326 1519.14 243.124 1519.14 249.018C1519.14 252.362 1519.29 255.679 1519.57 258.959C1503.17 265.312 1488.4 274.491 1475.99 285.819C1483.95 289.954 1491.35 294.874 1498.06 300.478C1499.78 301.884 1501.44 303.331 1503.06 304.819H1503.07Z" fill="url(#paint3_linear_135_35267)"/>
<path d="M399.006 256.815C415.469 263.21 430.288 272.455 442.73 283.871C460.359 274.86 480.676 269.72 502.305 269.72C510.786 269.72 519.067 270.513 527.063 272.015C530.492 265.244 534.638 258.845 539.409 252.889C530.427 240.877 515.337 232.993 498.229 232.993C495.355 232.993 492.537 233.218 489.793 233.648C483.495 215.053 464.554 201.548 442.159 201.548C438.174 201.548 434.299 201.979 430.584 202.785C421.717 190.164 406.231 181.803 388.613 181.803C385.714 181.803 382.875 182.032 380.116 182.468C392.388 201.305 399.437 223.327 399.437 246.851C399.437 250.205 399.292 253.526 399.011 256.815H399.006Z" fill="url(#paint4_linear_135_35267)"/>
<path d="M1542.5 179.27C1532.09 170.282 1518.05 164.775 1502.61 164.775C1501.01 164.775 1499.42 164.835 1497.86 164.954C1495.51 154.468 1489.8 145.104 1481.79 137.856C1471.28 128.35 1456.84 122.482 1440.91 122.482C1416.44 122.482 1395.5 136.312 1386.92 155.902C1383.44 155.251 1379.83 154.907 1376.14 154.907C1352.57 154.907 1332.56 168.848 1325.43 188.212C1323.19 187.951 1320.91 187.818 1318.6 187.818C1299.91 187.818 1283.46 196.587 1273.89 209.868C1276.06 209.762 1278.24 209.703 1280.44 209.703C1329.67 209.703 1372.1 236.305 1391.51 274.659C1399.51 273.156 1407.79 272.364 1416.27 272.364C1437.9 272.364 1458.21 277.504 1475.85 286.515C1488.29 275.099 1503.11 265.854 1519.57 259.459C1519.29 256.169 1519.15 252.848 1519.15 249.495C1519.15 243.589 1519.6 237.776 1520.45 232.086C1523.38 212.731 1531.11 194.782 1542.5 179.279L1542.5 179.27Z" fill="url(#paint5_linear_135_35267)"/>
<path d="M266.946 127.592C305.052 128.248 339.368 143.068 363.871 166.541C363.775 147.227 350.413 130.891 331.983 125.306C334.011 119.085 335.102 112.475 335.102 105.626C335.102 68.8849 303.705 39.0982 264.973 39.0982C252.802 39.0982 241.357 42.0393 231.378 47.216C223.002 36.7572 209.754 30 194.839 30C179.924 30 166.356 36.9221 158 47.6008C208.112 54.2068 249.492 85.5099 266.941 127.597L266.946 127.592Z" fill="#F1F3FE"/>
<path d="M72.3445 0C52.6582 0 34.6741 6.91755 20.9407 18.3246C15.3582 10.8528 7.34751 5.1355 -2 2.19898V149.511L-0.883506 150.028C7.76307 88.0728 65.6005 40.1859 135.659 40.1859C137.737 40.1859 139.8 40.2317 141.853 40.3142C128.915 16.3822 102.645 0.00458563 72.3445 0.00458563V0Z" fill="white"/>
<defs>
<linearGradient id="paint0_linear_135_35267" x1="1333.09" y1="208.477" x2="1333.09" y2="375" gradientUnits="userSpaceOnUse">
<stop stop-color="white"/>
<stop offset="0.472537" stop-color="#F4F5FC"/>
<stop offset="1" stop-color="#EAECFA"/>
</linearGradient>
<linearGradient id="paint1_linear_135_35267" x1="585.006" y1="208.481" x2="624.954" y2="396.429" gradientUnits="userSpaceOnUse">
<stop stop-color="#F8F9FD"/>
<stop offset="1" stop-color="#DCE1FF"/>
</linearGradient>
<linearGradient id="paint2_linear_135_35267" x1="220.368" y1="40.5754" x2="220.368" y2="375" gradientUnits="userSpaceOnUse">
<stop stop-color="#F3F4FD"/>
<stop offset="1" stop-color="#DCDFF7"/>
</linearGradient>
<linearGradient id="paint3_linear_135_35267" x1="1697" y1="42.2612" x2="1697" y2="374.991" gradientUnits="userSpaceOnUse">
<stop stop-color="white"/>
<stop offset="0.274608" stop-color="white" stop-opacity="0.537881"/>
<stop offset="1" stop-color="#D9DCF6"/>
</linearGradient>
<linearGradient id="paint4_linear_135_35267" x1="459.763" y1="181.803" x2="459.763" y2="283.871" gradientUnits="userSpaceOnUse">
<stop stop-color="white"/>
<stop offset="1" stop-color="#D7DBF5"/>
</linearGradient>
<linearGradient id="paint5_linear_135_35267" x1="1408.2" y1="122.482" x2="1408.2" y2="286.515" gradientUnits="userSpaceOnUse">
<stop stop-color="white"/>
<stop offset="0.665256" stop-color="#DEE0F6"/>
<stop offset="0.686091" stop-color="#DEE0F6"/>
<stop offset="1" stop-color="#CDD1F2"/>
</linearGradient>
</defs>
</svg>
