<svg width="97" height="174" viewBox="0 0 97 174" fill="none" xmlns="http://www.w3.org/2000/svg">
<path d="M64.111 131.46C64.111 131.46 71.4676 148.717 78.5914 148.205C84.7931 147.752 92.796 138.186 75.776 103.068C75.776 103.068 83.9012 119.087 88.6478 118.514C92.9955 117.984 106.711 106.103 80.954 61.2693C81.4674 44.9628 82.6985 22.7505 81.7615 0.233013C81.0115 0.0698265 66.1123 4.48655 66.1123 4.48655C66.1123 4.48655 85.0773 43.8732 70.3918 55.8068C70.3918 55.8068 40.7696 54.0787 26.543 67.4034C12.3222 80.7296 41.9883 77.3651 41.9883 77.3651C41.9883 77.3651 -1.38899 91.2871 8.66531 98.8816C18.7254 106.478 30.7008 103.809 30.7008 103.809C30.7008 103.809 -6.3156 121.682 1.4165 133.635C9.14861 145.587 24.2129 134.667 24.2129 134.667C24.2129 134.667 6.02331 157.665 20.6949 172.037C39.2 180.349 47.6579 152.149 47.6579 152.149C47.6579 152.149 47.8323 173.125 61.4705 173.001C75.1146 172.878 64.1094 131.466 64.1094 131.466L64.111 131.46ZM26.3256 162.11C26.3256 162.11 27.07 161.01 28.3579 158.999C42.2772 136.196 68.7842 64.8981 68.7842 64.8981C64.1945 101.181 36.1856 146.817 28.3579 158.999C27.6462 160.164 26.9656 161.213 26.3256 162.11Z" fill="white"/>
</svg>
