<svg width="130" height="130" viewBox="0 0 130 130" fill="none" xmlns="http://www.w3.org/2000/svg">
<path d="M130 78.4762C122.577 60.9185 99.6812 61.7396 99.6812 61.7396C113.866 50.2579 110.615 42.0743 110.615 42.0743C104.173 39.96 87.8482 44.8729 87.8482 44.8729C88.707 38.8105 123.15 10.5921 123.15 10.5921L110.342 0C112.721 1.45745 83.7925 40.9385 81.4068 39.4742C81.4068 39.4742 86.9893 24.4687 84.1674 18.2899C84.1674 18.2899 75.7016 15.9703 65.9475 31.4274C65.9475 31.4274 64.148 8.49834 45.9349 3.09279C45.9349 3.09279 40.5432 24.9887 45.9349 43.6618C45.9349 43.6618 20.2716 38.3794 0 53.3233C0 53.3233 16.6794 66.4609 40.291 67.4941C33.7542 70.799 11.4309 99.4758 15.4457 122.227L15.1798 122.528C15.2616 122.514 15.3366 122.487 15.4184 122.473C15.4184 122.521 15.4048 122.576 15.4048 122.624L15.5684 122.439C43.6923 122.049 69.1238 96.0682 66.9154 91.4359C70.6234 114.864 85.517 130.007 85.517 130.007C97.9976 108.09 89.8521 83.0949 89.8521 83.0949C108.951 86.3451 130.007 78.4831 130.007 78.4831L130 78.4762Z" fill="white"/>
</svg>
