<svg width="230" height="201" viewBox="0 0 230 201" fill="none" xmlns="http://www.w3.org/2000/svg">
<path d="M197.733 101.179C197.733 101.179 228.753 99.2559 231.887 87.8416C234.618 77.9179 224.106 60.1112 159.841 67.2329C159.841 67.2329 189.362 63.4223 191.089 55.6837C192.671 48.6001 181.706 20.6044 97.4315 35.9898C72.2452 26.1539 38.2462 11.9346 2.56862 0.922656C1.8998 2.00464 0.551349 27.718 0.551349 27.718C0.551349 27.718 72.5569 19.9235 83.0544 49.4654C83.0544 49.4654 63.9549 94.7595 76.8959 124.35C89.8368 153.941 100.995 105.743 100.995 105.743C100.995 105.743 98.7193 181.184 116.15 169.691C133.58 158.199 136.042 138.02 136.042 138.02C136.042 138.02 143.461 205.711 166.405 200.254C189.349 194.807 180.636 165.23 180.636 165.23C180.636 165.23 206.475 206.367 237.036 191.425C260.26 167.143 220.906 138.312 220.906 138.312C220.906 138.312 253.752 149.66 261.109 128.293C268.467 106.926 197.713 101.171 197.713 101.171L197.733 101.179ZM224.683 177.151C224.683 177.151 223.375 175.378 220.955 172.255C193.045 137.893 96.3886 57.0191 96.3886 57.0191C150.503 84.2856 206.267 153.286 220.955 172.255C222.383 174.018 223.64 175.656 224.683 177.151Z" fill="white"/>
</svg>
