<svg width="117" height="82" viewBox="0 0 117 82" fill="none" xmlns="http://www.w3.org/2000/svg">
<path d="M0.967738 48.6438C-0.238048 49.7111 0.428955 51.7006 2.02983 51.8354C4.32339 52.0271 7.0993 52.5659 9.50574 53.9182C14.7188 56.8455 48.6245 68.8399 55.2846 75.5702C61.9498 82.3005 87.7382 85.8081 89.4776 75.5702C91.217 65.3322 101.356 58.6019 101.356 58.6019C101.356 58.6019 109.76 38.4162 106.861 34.0226C103.962 29.6341 117 27.2974 117 27.2974C117 27.2974 106.861 19.1009 98.7442 23.7846C90.6321 28.4684 75.5623 50.7007 64.8436 47.7785L60.4977 29.9295C48.3167 16.3082 33.4778 6.73865 16.1658 0.96167C16.1658 0.96167 26.633 30.2196 38.6447 38.2504C40.8767 39.7426 42.3441 42.1466 42.8059 44.8045L43.3293 47.82C43.6577 49.7163 42.1133 51.4105 40.2148 51.2343L15.2935 48.9443L13.4823 47.7422C9.58784 45.1672 4.47223 45.5299 0.97801 48.6334L0.967738 48.6438Z" fill="#CDD1F2"/>
</svg>
