<svg width="140" height="87" viewBox="0 0 140 87" fill="none" xmlns="http://www.w3.org/2000/svg">
<path d="M34.0471 52.8569C34.0471 52.8569 18.814 56.4376 18.2169 62.3653C17.7027 67.5268 24.4218 75.4707 55.7145 66.5C55.7145 66.5 41.3887 70.8891 41.1816 74.872C40.9959 78.5207 48.8007 91.4899 89.3267 76.727C102.655 79.4786 120.734 83.6637 139.374 86.1106C139.615 85.5175 138.114 72.6418 138.114 72.6418C138.114 72.6418 103.034 82.6011 95.325 68.8269C95.325 68.8269 100.977 44.7291 92.0588 31.1334C83.1384 17.5423 81.6653 42.4039 81.6653 42.4039C81.6653 42.4039 76.4207 4.76558 68.7427 11.9436C61.0626 19.1263 61.545 29.3494 61.545 29.3494C61.545 29.3494 52.1445 -3.6257 41.2167 1.02127C30.2888 5.66824 37.1112 19.6088 37.1112 19.6088C37.1112 19.6088 20.8093 1.37424 6.90193 11.3788C-2.57335 25.3995 19.3949 36.3794 19.3949 36.3794C19.3949 36.3794 2.13067 33.526 0.284618 44.7523C-1.56356 55.9831 34.0425 52.8548 34.0425 52.8548L34.0471 52.8569ZM14.2557 17.4245C14.2557 17.4245 15.0537 18.1935 16.5222 19.5392C33.2745 34.2365 88.083 66.2069 88.083 66.2069C58.9197 57.2514 25.4153 27.7126 16.5222 19.5392C15.6662 18.7878 14.9016 18.0787 14.2557 17.4245Z" fill="white"/>
</svg>
