<svg width="200" height="202" viewBox="0 0 200 202" fill="none" xmlns="http://www.w3.org/2000/svg">
<path d="M100 201.271C155.228 201.271 200 156.359 200 100.957C200 45.5554 155.228 0.643311 100 0.643311C44.7715 0.643311 0 45.5554 0 100.957C0 156.359 44.7715 201.271 100 201.271Z" fill="#FEF3EB"/>
<path d="M41.9207 40.5503C33.2357 50.9666 16.2407 78.4032 43.2157 73.7603C44.7357 73.5007 45.7907 71.8743 45.6157 70.1151C44.9157 63.1421 43.6307 58.5568 46.2757 54.1734C46.8357 53.2391 46.9557 52.0394 46.5607 50.9954C45.7007 48.7345 46.3707 46.0237 46.7857 43.3879C47.2907 40.1984 43.8707 38.2086 41.9257 40.5445L41.9207 40.5503Z" fill="#FDEAD1"/>
<path d="M162.6 80.814C160.145 77.959 156.01 78.3973 153.9 81.5984C143.51 97.3382 159.445 87.5275 157.74 102.916C157.415 104.998 157.545 107.149 158.19 108.925C159.025 111.244 158.585 113.897 156.96 115.57C148.82 123.944 141.055 120.836 143.555 141.478C145.165 144.621 147.89 149.27 143.485 151.992C125.04 164.814 126.355 148.382 109.25 153.832C105.83 157.229 97.4154 153.048 93.9104 152.327C88.9254 152.765 82.4954 161.601 83.9254 168.188C86.4204 179.712 95.6054 176.903 101 177.381C105.445 192.193 123.1 173.886 129.51 170.524C131.82 170.126 132.82 177.497 135.445 176.701C141.205 175.657 146.76 171.695 148.76 165.35C153.1 161.347 164.125 149.535 170.775 140.918C174.27 136.391 174.17 129.516 170.5 125.179C163.05 116.371 163.465 122.404 168.3 109.762C169.195 107.426 164.055 99.1493 164.1 98.5783C164.195 91.2361 166.185 84.9898 162.595 80.8198L162.6 80.814Z" fill="#FDEAD1"/>
<path d="M142.11 34.0211C135.775 35.4284 142.315 42.8514 144.86 44.3682C142.315 49.3976 146.085 54.0694 150.795 55.5517C154.4 52.1372 158.305 65.4201 159.045 65.4028C161.73 70.5706 170.415 68.1193 170.475 62.2306C170.78 58.3432 165.47 55.1364 163.53 53.7176C160.93 49.1842 164.225 47.5462 158.61 44.87C157.03 39.4773 159.2 35.6937 152.1 32.5157C145.495 31.9621 140.055 28.0285 142.115 34.0211H142.11Z" fill="#FDEAD1"/>
<path d="M22.2451 100.049C22.2451 100.049 23.3201 129.654 32.0501 142.539C32.5601 143.289 33.5351 143.335 34.1201 142.66L37.2951 138.998C39.5901 135.958 31.8151 135.664 31.2051 134.026C26.5801 121.556 39.4401 120.611 30.7801 113.401C26.6201 109.935 28.8951 104.634 28.7051 101.433C28.6301 100.21 27.9601 99.0915 26.9501 98.7282C25.8451 98.3302 24.7201 98.7628 24.1901 100.332C23.9851 100.943 23.3301 101.156 22.9051 100.718L22.2451 100.043V100.049Z" fill="#FDEAD1"/>
<path d="M58.7003 140.693C51.3303 140.342 41.6153 144.454 45.1953 154.715C43.9303 172.686 71.3003 182.122 84.6503 185.081C86.2053 185.427 87.8303 185.15 89.1753 184.187C90.4103 183.31 89.8103 182.739 86.5803 180.196C85.2503 176.787 75.3603 176.706 74.3253 175.524C73.4003 169.26 73.5153 160.505 80.6003 159.496C86.6053 156.018 78.4953 147.459 74.2303 146.582C66.9253 146.346 65.0003 135.929 58.6953 140.682L58.7003 140.693Z" fill="#FDEAD1"/>
</svg>
